<svg width="188" height="70" viewBox="0 0 188 70" fill="none" xmlns="http://www.w3.org/2000/svg">
<path d="M178.253 52.99H8.97826C4.33576 52.99 0.572266 56.7296 0.572266 61.3427C0.572266 65.9557 4.33576 69.6953 8.97826 69.6953H178.253C182.896 69.6953 186.659 65.9557 186.659 61.3427C186.659 56.7296 182.896 52.99 178.253 52.99Z" fill="#3538AD"/>
<path d="M17.0758 30.6228V19.1418C19.722 19.1418 21.0454 18.1367 21.046 16.1264C21.046 14.2884 20.0344 13.3695 18.0113 13.3695C15.9668 13.3695 14.9446 14.6308 14.9446 17.1534V45.7567H1.8418V18.5008C1.8418 15.6784 2.12705 13.364 2.69757 11.5576C3.26809 9.75126 4.24178 8.06751 5.61865 6.50639C7.16719 4.77469 9.10359 3.40627 11.4278 2.40113C13.6955 1.40824 16.1463 0.895078 18.6243 0.894287C23.0989 0.894287 26.8589 2.39079 29.9046 5.3838C32.9502 8.3768 34.4728 12.0863 34.4722 16.5124C34.4722 20.8098 33.1057 24.2947 30.3728 26.9672C27.8763 29.4261 24.111 30.6555 19.0769 30.6555L17.0758 30.6228Z" fill="white"/>
<path d="M52.9971 1.98059V45.76H39.8936V1.98059H52.9971Z" fill="white"/>
<path d="M60.9043 45.7601V17.3463C60.9043 12.3649 62.4052 8.37738 65.4069 5.3838C68.4086 2.39022 72.4051 0.893713 77.3963 0.894287C82.3674 0.894287 86.1706 2.348 88.8058 5.25543C91.441 8.16285 92.7589 12.3428 92.7595 17.7952V45.7601H79.6559V17.7952C79.6559 15.1227 78.6984 13.7864 76.7834 13.7864C74.9337 13.7864 74.0088 15.1227 74.0088 17.7952V45.7601H60.9043Z" fill="white"/>
<path d="M148.208 1.98059V30.3668C148.208 35.3689 146.707 39.3668 143.706 42.3603C140.705 45.3539 136.708 46.8507 131.716 46.8507C126.745 46.8507 122.942 45.3967 120.306 42.4887C117.671 39.5807 116.354 35.4011 116.354 29.9498V1.98059H129.457V29.917C129.457 32.5901 130.414 33.9264 132.329 33.9258C134.179 33.9258 135.103 32.5896 135.103 29.917V1.98059H148.208Z" fill="white"/>
<path d="M170.511 30.6228V19.1418C173.157 19.1418 174.481 18.1367 174.481 16.1264C174.481 14.2884 173.47 13.3695 171.447 13.3695C169.402 13.3695 168.38 14.6308 168.38 17.1534V45.7567H155.276V18.5008C155.276 15.6784 155.561 13.364 156.131 11.5576C156.701 9.75126 157.675 8.06751 159.052 6.50639C160.601 4.77469 162.537 3.40627 164.862 2.40113C167.129 1.40824 169.58 0.895078 172.058 0.894287C176.533 0.894287 180.293 2.39079 183.338 5.3838C186.383 8.3768 187.906 12.0863 187.905 16.5124C187.905 20.8098 186.539 24.2947 183.806 26.9672C181.31 29.4261 177.544 30.6555 172.51 30.6555L170.511 30.6228Z" fill="white"/>
<path d="M45.5713 56.7864H46.8953V66.1617H45.5713V56.7864ZM46.2138 60.8805H49.166V62.1314H46.212L46.2138 60.8805ZM47.999 62.0315L49.1608 61.3543L52.8024 66.1583H50.9617L47.999 62.0315ZM48.0051 61.0123L50.7441 56.783H52.4053L48.677 62.1668L48.0051 61.0123ZM53.1709 64.9073V68.095H51.8443V64.9073H53.1709ZM52.5024 65.2942V66.1557H52.1322V65.2942H52.5024Z" fill="white"/>
<path d="M59.7531 56.7855H60.8803L64.3606 66.1609H62.9326L60.3175 58.5974L57.7025 66.1609H56.2754L59.7531 56.7855ZM57.8777 62.8525H62.8424V64.1035H57.8777V62.8525Z" fill="white"/>
<path d="M69.6626 65.9634C69.2247 65.7821 68.8438 65.4872 68.5597 65.1096C68.2702 64.7126 68.087 64.2489 68.0273 63.7622H69.3773C69.413 63.9487 69.4873 64.1258 69.5955 64.2823C69.7037 64.4387 69.8435 64.5712 70.0059 64.6711C70.3441 64.8859 70.7776 64.9933 71.3065 64.9933C71.8267 64.9933 72.2313 64.8612 72.5204 64.597C72.8094 64.3328 72.9522 63.9577 72.9487 63.4718V63.4649C72.9487 62.9713 72.8221 62.5879 72.5689 62.3174C72.3157 62.0468 71.962 61.9116 71.5016 61.9116H70.1265V60.6606H71.5085C71.9195 60.6606 72.2374 60.5423 72.4623 60.3057C72.6871 60.069 72.7998 59.7339 72.8004 59.3003V59.2417C72.8004 58.8161 72.6715 58.4947 72.4137 58.2776C72.1559 58.0605 71.7871 57.9522 71.3074 57.9528C70.9057 57.9394 70.5091 58.046 70.1689 58.2586C69.8601 58.4617 69.6336 58.7669 69.5299 59.1202H68.186C68.2739 58.6454 68.467 58.196 68.7513 57.8046C69.0194 57.4423 69.3781 57.1557 69.7918 56.9732C70.248 56.7774 70.7411 56.6808 71.238 56.6898C71.8657 56.6898 72.399 56.782 72.8377 56.9663C73.2505 57.1296 73.6013 57.4173 73.8409 57.7891C74.0721 58.1521 74.1877 58.5981 74.1877 59.1271V59.1779C74.199 59.629 74.0847 60.0745 73.8573 60.4651C73.6385 60.8261 73.3083 61.1074 72.9157 61.2672C73.1338 61.3156 73.3398 61.4074 73.5211 61.5371C73.7025 61.6668 73.8555 61.8317 73.9709 62.0219C74.2189 62.4176 74.3432 62.9227 74.3438 63.5373V63.5433C74.3438 64.1177 74.2227 64.6059 73.9805 65.008C73.7328 65.4184 73.3633 65.7425 72.9227 65.9358C72.4602 66.1489 71.9022 66.2555 71.2484 66.2555C70.7053 66.2668 70.1656 66.1674 69.6626 65.9634Z" fill="white"/>
<path d="M81.3318 56.7855H82.4589L85.9375 66.1609H84.5095L81.9006 58.5974L79.2856 66.1609H77.8584L81.3318 56.7855ZM79.4564 62.8525H84.4211V64.1035H79.4564V62.8525Z" fill="white"/>
<path d="M90.0645 56.7855H91.3884V66.1609H90.0645V56.7855ZM90.7069 60.8796H93.6549V62.1305H90.7069V60.8796ZM92.4913 62.0341L93.6523 61.3569L97.2939 66.1609H95.4575L92.4913 62.0341ZM92.4974 61.0148L95.2364 56.7855H96.9002L93.1719 62.1693L92.4974 61.0148ZM97.6632 64.9099V68.0976H96.3393V64.9099H97.6632ZM96.9947 65.2967V66.1583H96.6245V65.2967H96.9947Z" fill="white"/>
<path d="M102.654 65.8213C102.159 65.5332 101.758 65.1078 101.502 64.597C101.22 64.0257 101.08 63.3955 101.094 62.7594V60.1894C101.08 59.5532 101.22 58.923 101.502 58.3517C101.759 57.8405 102.159 57.4141 102.654 57.124C103.179 56.8278 103.774 56.6789 104.377 56.6932C104.895 56.6879 105.407 56.8061 105.869 57.0378C106.323 57.267 106.714 57.6023 107.008 58.0148C107.32 58.4521 107.531 58.9521 107.628 59.4794H106.272C106.192 59.1919 106.052 58.9246 105.86 58.6954C105.675 58.472 105.444 58.2907 105.182 58.1639C104.895 58.0263 104.578 57.9624 104.26 57.9782C103.942 57.9941 103.633 58.089 103.361 58.2543C103.067 58.4438 102.833 58.7128 102.686 59.0297C102.519 59.3945 102.437 59.7921 102.446 60.1928V62.7628C102.438 63.1626 102.52 63.5592 102.686 63.9233C102.832 64.2408 103.066 64.51 103.361 64.6987C103.665 64.8852 104.017 64.9804 104.374 64.9727C104.652 64.9735 104.927 64.9147 105.181 64.8004C105.442 64.6809 105.673 64.5042 105.856 64.2834C106.053 64.0467 106.194 63.769 106.268 63.471H107.624C107.528 63.9987 107.315 64.4988 107.002 64.9356C106.705 65.3473 106.314 65.6821 105.86 65.9117C105.399 66.143 104.89 66.2612 104.374 66.2564C103.772 66.268 103.178 66.1176 102.654 65.8213Z" fill="white"/>
<path d="M110.91 56.7855H117.568V58.0365H110.91V56.7855ZM113.577 57.5523H114.901V66.1609H113.577V57.5523Z" fill="white"/>
<path d="M123.549 56.7855H124.676L128.155 66.1609H126.727L124.112 58.5974L121.497 66.1609H120.069L123.549 56.7855ZM121.673 62.8525H126.64V64.1035H121.675L121.673 62.8525Z" fill="white"/>
<path d="M132.281 56.7855H133.605V66.1609H132.281V56.7855ZM133.105 60.9209H138.344V62.1719H133.108L133.105 60.9209ZM137.641 56.7855H138.964V66.1609H137.641V56.7855Z" fill="white"/>
</svg>
